<?xml version="1.0" standalone="no"?>
<!DOCTYPE svg PUBLIC "-//W3C//DTD SVG 20010904//EN"
 "http://www.w3.org/TR/2001/REC-SVG-20010904/DTD/svg10.dtd">
<svg version="1.0" xmlns="http://www.w3.org/2000/svg"
 width="512.000000pt" height="512.000000pt" viewBox="0 0 512.000000 512.000000"
 preserveAspectRatio="xMidYMid meet">
<metadata>
Created by potrace 1.14, written by Peter Selinger 2001-2017
</metadata>
<g transform="translate(0.000000,512.000000) scale(0.100000,-0.100000)"
fill="#000000" stroke="none">
<path d="M1365 5107 c-223 -67 -295 -315 -214 -732 36 -182 97 -357 198 -567
28 -60 52 -111 54 -114 1 -4 -36 -15 -83 -25 -155 -32 -305 -92 -426 -171 -52
-34 -193 -151 -230 -191 -49 -53 -115 -137 -162 -207 -219 -328 -288 -703
-216 -1160 21 -134 100 -403 170 -583 168 -426 489 -891 761 -1100 296 -227
613 -298 1028 -230 203 33 466 36 609 7 31 -6 77 -15 111 -20 72 -13 294 -12
370 1 424 72 793 346 1060 790 126 208 276 536 349 757 123 376 151 782 75
1080 -113 444 -382 776 -772 950 -103 47 -255 94 -327 102 -19 2 -38 4 -42 5
-4 0 13 38 37 84 61 114 157 358 180 457 1 3 11 46 22 95 31 128 35 164 38
307 5 185 -30 304 -112 390 -83 86 -239 110 -415 64 -173 -44 -369 -142 -560
-277 -53 -38 -102 -74 -110 -81 -7 -7 -33 -29 -58 -49 -25 -20 -72 -61 -104
-91 l-60 -55 -36 36 c-20 20 -60 56 -90 81 -29 25 -57 50 -64 55 -117 106
-404 279 -561 338 -155 58 -332 81 -420 54z"/>
</g>
</svg>
